<svg xmlns="http://www.w3.org/2000/svg" viewBox="0 0 256.34 256.34"><defs><style>.cls-1{fill:#fff;}</style></defs><g id="Layer_2" data-name="Layer 2"><g id="Layer_1-2" data-name="Layer 1"><rect class="cls-1" width="256.34" height="256.34"/><path d="M38.84,77.83l4.16-5a16.54,16.54,0,0,0,11.08,4.45c3.63,0,5.49-1.68,5.49-3.81,0-2.42-2-3.16-7.11-4.34-7.11-1.63-12.15-3.66-12.15-10.23,0-6.27,5.09-10.57,12.45-10.57A19.38,19.38,0,0,1,65.94,53l-3.77,5.24a15.55,15.55,0,0,0-9.61-3.75c-3.09,0-5,1.63-5,3.65,0,2.47,2,3.26,7.2,4.45,7.26,1.63,12.06,3.8,12.06,10.07,0,6.47-4.85,10.77-13.09,10.77A21.54,21.54,0,0,1,38.84,77.83Z"/><path d="M86.92,81.24a9.2,9.2,0,0,1-5.83,2.22c-4.46,0-7.6-3.21-7.6-7.8V63.16H70V57.33h3.48v-7h6.86v7h5.49v5.83H80.35V74.52a2.6,2.6,0,0,0,2.4,2.86,3.68,3.68,0,0,0,2.45-.83Z"/><path d="M113.83,67.61V82.87h-6.91V80.3a10,10,0,0,1-7.45,3.16c-5.39,0-9.56-3.26-9.56-8.15,0-5,4.66-8.5,10.54-8.5a18.17,18.17,0,0,1,6.47,1.29v-.49c0-2.72-1.67-5.09-5.83-5.09a14.47,14.47,0,0,0-6.57,1.82l-2.4-4.79a23.21,23.21,0,0,1,10.58-2.81C109.32,56.74,113.83,60.94,113.83,67.61Zm-6.91,7.21V72.45a15.76,15.76,0,0,0-5.44-.94c-2.6,0-4.66,1.53-4.66,3.6s1.82,3.36,4.27,3.36C103.83,78.47,106.43,77.19,106.92,74.82Z"/><path d="M135.69,56.74v6.07c-5.29,0-8.67,3.07-8.67,7.86v12.2h-7.16V57.33H127v4.74A9.43,9.43,0,0,1,135.69,56.74Z"/><path d="M154.86,81.24A9.22,9.22,0,0,1,149,83.46c-4.46,0-7.6-3.21-7.6-7.8V63.16H138V57.33h3.48v-7h6.86v7h5.49v5.83h-5.49V74.52a2.6,2.6,0,0,0,2.4,2.86,3.68,3.68,0,0,0,2.45-.83Z"/><path d="M183.29,57.33V82.87h-7.16V79.66a9,9,0,0,1-7.64,3.8c-5.49,0-9.42-4.1-9.42-9.88V57.33H166V72.05c0,3.16,2,5.33,4.8,5.33a5.05,5.05,0,0,0,5.29-4.93l0,.14V57.33Z"/><path d="M216.72,70.07c0,7.86-4.91,13.39-11.67,13.39a10.31,10.31,0,0,1-8.48-4.2v12.1h-7.15v-34h7.15v3.56a10.4,10.4,0,0,1,8.48-4.15C211.81,56.74,216.72,62.27,216.72,70.07Zm-7,0c0-4.24-2.8-7.26-6.77-7.26-3.48,0-6,2.57-6.42,6.28v2c.39,3.76,2.94,6.32,6.42,6.32C207,77.38,209.76,74.37,209.76,70.07Z"/><path d="M70.79,95.11v33.94h-7.2V115H48.25v14H41V95.11h7.21v13.34H63.59V95.11Z"/><path d="M99.71,113.78v15.27H92.8v-2.57a10,10,0,0,1-7.45,3.16c-5.39,0-9.55-3.26-9.55-8.15s4.65-8.5,10.53-8.5a18.13,18.13,0,0,1,6.47,1.29v-.5c0-2.71-1.66-5.08-5.83-5.08a14.5,14.5,0,0,0-6.57,1.82L78,105.73a23.21,23.21,0,0,1,10.59-2.81C95.2,102.92,99.71,107.12,99.71,113.78ZM92.8,121v-2.37a15.76,15.76,0,0,0-5.44-.94c-2.6,0-4.65,1.53-4.65,3.6s1.81,3.36,4.26,3.36C89.71,124.65,92.31,123.37,92.8,121Z"/><path d="M129.71,103.51v25.54h-7.15v-3.21a9,9,0,0,1-7.65,3.8c-5.49,0-9.41-4.1-9.41-9.88V103.51h6.91v14.72c0,3.16,2,5.33,4.8,5.33a5.06,5.06,0,0,0,5.3-4.93l0,.14V103.51Z"/><path d="M133.93,125.79l3.09-5a14.31,14.31,0,0,0,8.48,2.86c1.91,0,3.28-.79,3.28-1.92,0-1.58-1.86-2.08-4.46-2.77-5.2-1.28-9.21-2.72-9.26-7.75-.05-4.84,3.92-8.3,9.9-8.3a18.35,18.35,0,0,1,10,3.16l-2.9,5.14a14.19,14.19,0,0,0-7.1-2.28c-1.77,0-3,.65-3,1.54,0,1.38,1,1.77,4.46,2.71,4.36,1.14,9.21,2.62,9.21,8.2,0,5-4.07,8.25-10.29,8.25A18.63,18.63,0,0,1,133.93,125.79Z"/><path d="M39.72,158.24c0-9.54,8.23-17.54,17.89-17.54a17.94,17.94,0,0,1,13.08,5.68l-5.24,4.74a10.45,10.45,0,0,0-7.84-3.8c-5.64,0-10.44,5-10.44,10.92s4.8,11,10.44,11a10.45,10.45,0,0,0,7.84-3.8l5.24,4.74a18.13,18.13,0,0,1-13.08,5.68C48,175.82,39.72,167.77,39.72,158.24Z"/><path d="M97.41,160v15.27H90.5v-2.57a10.06,10.06,0,0,1-7.45,3.16c-5.39,0-9.56-3.26-9.56-8.15s4.66-8.5,10.54-8.5a18.17,18.17,0,0,1,6.47,1.29V160c0-2.71-1.67-5.08-5.83-5.08a14.47,14.47,0,0,0-6.57,1.82l-2.4-4.79a23.14,23.14,0,0,1,10.58-2.81C92.9,149.1,97.41,153.3,97.41,160Zm-6.91,7.22V164.8a16,16,0,0,0-5.44-.93c-2.6,0-4.66,1.53-4.66,3.6s1.82,3.36,4.27,3.36C87.41,170.83,90,169.55,90.5,167.18Z"/><path d="M103.1,142.23a3.87,3.87,0,1,1,3.92,4A3.93,3.93,0,0,1,103.1,142.23Zm.29,7.46h7.16v25.54h-7.16Z"/><path d="M132.6,149.1v6.07c-5.29,0-8.67,3.07-8.67,7.86v12.2h-7.16V149.69h7.16v4.74A9.43,9.43,0,0,1,132.6,149.1Z"/><path d="M134.71,162.43c0-7.26,6.33-13.33,13.87-13.33s13.78,6.07,13.78,13.33-6.28,13.39-13.78,13.39S134.71,169.69,134.71,162.43Zm20.83,0a7,7,0,1,0-7,7.31A7.2,7.2,0,0,0,155.54,162.43Z"/><path d="M44,198.15h1.57v4.38a3.69,3.69,0,0,1,2.37-.94,4,4,0,0,1,2.32.83,2,2,0,0,1,.61.47,6.27,6.27,0,0,1,1.3,3.7,7.11,7.11,0,0,1-.39,2.14,4.36,4.36,0,0,1-2.47,2.46,3.76,3.76,0,0,1-1.43.26,3.26,3.26,0,0,1-2.31-.91v.71H43.53v-13.1Zm1.75,6.71a1.58,1.58,0,0,1-.12.37v2.58a2,2,0,0,0,2,1.49.73.73,0,0,0,.28,0A2.52,2.52,0,0,0,50,206.82v-.19c0-1.89-.86-2.87-2.59-2.93A2.4,2.4,0,0,0,45.77,204.86Z"/><path d="M53.82,201.88h1.62l.09.26.08.28.06.23a2.08,2.08,0,0,1,.18.53l.1.18,0,.22a1.85,1.85,0,0,1,.23.73.2.2,0,0,1,0,.08.5.5,0,0,1,0,.13,1.12,1.12,0,0,1,.11.26c0,.08,0,.15.05.21l.06.24a.3.3,0,0,0,0,.08.69.69,0,0,0,0,.1l.08.12,0,.15,0,.06.08.32.06.13.08.18,0,.1,0,.14.08.21a.71.71,0,0,0,.1.26v.12a.16.16,0,0,1,0,.1,1,1,0,0,1,.11.27l.2.55.08-.25.1-.24v-.1l.08-.19.16-.46.07-.23.06-.22.08-.22,0-.17,0-.12.12-.24.1-.37a1.83,1.83,0,0,1,.08-.25l.06-.2a2,2,0,0,0,.11-.38l.22-.59,0-.1,0-.13.06-.26,0-.1.08-.23.05-.1v-.1c0-.07.06-.13.08-.19a.6.6,0,0,0,.06-.19l.18-.61h2.22l0,.22-.05.1a0,0,0,0,0,0,0,.43.43,0,0,0,0,0,.15.15,0,0,0,0,.07l-.26.84-.08.2a1.59,1.59,0,0,1-.08.18v.12c0,.06-.05.12-.07.17l-.07.18-.05.16-.08.31,0,.1,0,.08,0,.12a.82.82,0,0,0-.06.16.43.43,0,0,1,0,.11l-.1.26a1.5,1.5,0,0,1-.09.32,1.48,1.48,0,0,1-.12.29l-.06.2-.08.21-.08.2,0,.25-.08.08,0,.22,0,.1,0,.12-.18.47-.07.18,0,.13,0,.1,0,.12-.08.16a3,3,0,0,1-.22.61l0,.17,0,.1a3.79,3.79,0,0,0-.14.38,1.08,1.08,0,0,0-.07.27l-.08.18-.06.22-.08.15-.06.22-.12.39-.06.12a2.09,2.09,0,0,1-.09.36c0,.09-.08.17-.1.23l0,.2-.1.26-.12.37-.18.37,0,.14,0,.08a2.2,2.2,0,0,1-.3.39l-.25.26a5.64,5.64,0,0,1-2,.45,5.37,5.37,0,0,1-1.54-.27l.12-.61,0-.08v-.1l0-.2a.63.63,0,0,1,0-.19l0-.1.08-.46a3.48,3.48,0,0,0,1.16.24,1.11,1.11,0,0,0,1.12-.67v-.27l-.08-.26a2.27,2.27,0,0,1-.22-.73l-.11-.21-.06-.3a.62.62,0,0,1-.14-.39l-.12-.26-.06-.2,0-.21-.12-.2-.06-.24-.07-.29-.1-.22-.12-.35,0-.08-.28-.87,0-.08,0-.14-.06-.15v-.1s-.06,0-.06,0l0,0-.2-.55,0-.22a3.23,3.23,0,0,1-.29-.82.12.12,0,0,1,0-.08.24.24,0,0,0,0-.08l0-.14a2.54,2.54,0,0,1-.13-.34,2.3,2.3,0,0,0-.09-.25l0-.06-.06-.31-.08-.12,0-.14-.15-.43,0-.08-.28-.87Z"/><path d="M76.87,205.7l0,.51s0,0,0,.06a.08.08,0,0,1,0,0s0,0,0,0v1h-6.3a2.11,2.11,0,0,0,1.81,2,1.24,1.24,0,0,0,.27,0H73a3.13,3.13,0,0,0,2.19-.86,1.12,1.12,0,0,0,.27.31l0,.12.1.08.23.24.13.19,0,0,0,0,.48.55A5.25,5.25,0,0,1,73,211.53a5.11,5.11,0,0,1-1.32-.18,4.5,4.5,0,0,1-3.26-4.27v-.31q0-4.52,4-5.1C75.12,201.76,76.59,203.11,76.87,205.7Zm-6.26,0h4.15v-.1a.41.41,0,0,1-.06-.19s0,0,0,0a.08.08,0,0,0,0,0,.69.69,0,0,1-.07-.34,2.24,2.24,0,0,0-2.13-1.49A2.22,2.22,0,0,0,70.61,205.74Z"/><path d="M86.77,203.52v.1c0,.08,0,.15.08.21l.06.2v7.18H84.8v-6.08l0-.21c-.3-.86-.79-1.28-1.47-1.28a1.84,1.84,0,0,0-1.16.38,2.57,2.57,0,0,0-.75.9l-.14.59v5.7H79.19v-9.38h2.07v.78a4,4,0,0,1,2.08-1h.14A3.36,3.36,0,0,1,86.77,203.52Z"/><path d="M94.09,201.67a4.38,4.38,0,0,1,.77.06,4.58,4.58,0,0,1,3.32,4.68v.32c0,.1,0,.21,0,.31a4.56,4.56,0,0,1-2.7,4.11,4,4,0,0,1-1.58.32,3.46,3.46,0,0,1-2.32-.89v3.61h-2V201.83h2v.7a4,4,0,0,1,2-.86Zm-2.44,4.52a.82.82,0,0,0,0,.28v.45a3,3,0,0,0,.59,2,2.43,2.43,0,0,0,1.46.53,2.17,2.17,0,0,0,1.08-.31A2.85,2.85,0,0,0,96,206.65v-.22a1.94,1.94,0,0,0,0-.24,2.57,2.57,0,0,0-2.44-2.4,2.05,2.05,0,0,0-1.91,2.15.62.62,0,0,0,0,.13A.53.53,0,0,1,91.65,206.19Z"/><path d="M106.92,202.69l.1.2a2.93,2.93,0,0,1,.53,1,6,6,0,0,1,.06.77v4.51a1.26,1.26,0,0,0,.93.76l-.06.1c0,.06,0,.08-.06.08l0,.1-.08.08a.55.55,0,0,1-.22.29,1.19,1.19,0,0,1-.31.5,4,4,0,0,1-.26.51,2.87,2.87,0,0,1-1.59-.93h-.1a4,4,0,0,1-2.3.81,4.44,4.44,0,0,1-1.24-.22,3.24,3.24,0,0,1-2.23-2.42v0c0-2.22,1.28-3.32,3.84-3.32h.2l0,0,.12,0h.23l.1,0h.12l.87-.1a.86.86,0,0,1,0-.17s0-.1,0-.17c0-1-.52-1.45-1.54-1.45a8.19,8.19,0,0,0-2.89.71l-.14-.3,0-.1,0-.11-.06-.06,0-.08-.08-.22a1.09,1.09,0,0,0-.08-.15.58.58,0,0,1-.05-.14,1.17,1.17,0,0,1-.22-.5l.08,0,.08,0,.09,0,.08-.07h.1l.06,0h0a2.53,2.53,0,0,1,.53-.24l.18,0,.18-.06.15,0,.28-.08.29-.07a1.45,1.45,0,0,1,.3-.06l.75-.12.34,0h.33A3.6,3.6,0,0,1,106.92,202.69ZM104.74,207h-.22a.74.74,0,0,1-.27.06h-.08l-.12,0h-.12a.12.12,0,0,1-.1,0h-.09l-.3.06-.26.08h-.09a1.61,1.61,0,0,1-.44.17,1.47,1.47,0,0,0-.57,1,1.25,1.25,0,0,0,.49.9,2.15,2.15,0,0,0,2.82-.23.5.5,0,0,1,.14-.28l0-.1,0-.13V207h-.71Z"/><path d="M118.48,204.21l-.4.13-.11.09a.42.42,0,0,1-.14.09l-.08,0-.2.08a.68.68,0,0,1-.27.12l-.56.31a2.27,2.27,0,0,0-2.1-1.43h-.38a.33.33,0,0,0-.17,0l-.1.06-.1,0-.37.2-.27.3-.22.23a4.69,4.69,0,0,0-.56,2.15,3.85,3.85,0,0,0,.61,2.08,2,2,0,0,0,1.6.85h.18a2.33,2.33,0,0,0,1.9-1.46l.36.22.14.06a.63.63,0,0,1,.27.1l.14.08.08.06.75.35a4.21,4.21,0,0,1-3.8,2.42,5.56,5.56,0,0,1-.79-.06,4.14,4.14,0,0,1-3.5-3.88,5.66,5.66,0,0,1-.06-.82,5.22,5.22,0,0,1,.73-2.78,3.84,3.84,0,0,1,3.3-2.08A4.36,4.36,0,0,1,118.48,204.21Z"/><path d="M123.5,198.28v3.58H126v1.8h-2.5v4.6c0,.15,0,.28,0,.41s0,.25,0,.36a1.55,1.55,0,0,0,1.15.43,4.17,4.17,0,0,0,1.06-.21l0,.11v.2q0,.1,0,.18s0,.09,0,.12v.07a1.49,1.49,0,0,0,.06.36l.12.86a6.84,6.84,0,0,1-1.89.26,2.72,2.72,0,0,1-2.43-1.08v-.08l-.08-.22a1.54,1.54,0,0,1-.08-.19.76.76,0,0,1-.06-.2v-.1a3.66,3.66,0,0,1-.06-.59.28.28,0,0,1,0-.09.28.28,0,0,0,0-.09v-5.11h-1.65v-1.8h1.65v-3l.41-.11.1-.06.18,0h.08a0,0,0,0,0,0,0l.12-.06.09,0,.1-.06.28-.08.06,0a.12.12,0,0,1,.08,0l.51-.21A.32.32,0,0,1,123.5,198.28Z"/></g></g></svg>