<svg xmlns="http://www.w3.org/2000/svg" viewBox="0 0 176.07 69.3"><defs><style>.cls-1{fill:#fafcfd;}.cls-2{fill:#fafbfc;}</style></defs><g id="Layer_2" data-name="Layer 2"><g id="Layer_1-2" data-name="Layer 1"><path class="cls-1" d="M8.06,16.9l3.61-3.68c.34.24.7.51,1.07.76a4.5,4.5,0,0,0,4.69.11,13.81,13.81,0,0,0,3.46-2.67c1.53-1.43,3-2.89,4.59-4.29a6.44,6.44,0,0,1,3.73-1.87,6.85,6.85,0,0,1,2.16.18A9.85,9.85,0,0,1,36,8.27q4.74,4.68,9.46,9.4l.19.21-3.66,3.56-2.11-2.05L32.19,12a2.56,2.56,0,0,0-1.41-.84,2.44,2.44,0,0,0-2,.5c-.75.64-1.46,1.33-2.19,2-1.46,1.31-2.9,2.65-4.41,3.92a8.6,8.6,0,0,1-4.18,2,8.87,8.87,0,0,1-3.08-.18l-.82-.14a3.26,3.26,0,0,0,.08.55,7.42,7.42,0,0,1-1.32,6.87c-1.24,1.59-2.62,3.07-3.95,4.58-.64.72-1.33,1.39-2,2.1a3.07,3.07,0,0,0-.9,1.72,2.4,2.4,0,0,0,.64,2c1.56,1.65,3.1,3.32,4.68,5s3.14,3.21,4.72,4.81c.08.09.15.2.16.21l-3.58,3.64c-.14-.13-.33-.29-.51-.47C9.45,47.57,6.71,44.88,4,42.13a25.72,25.72,0,0,1-2.85-3.42,6,6,0,0,1,.28-7.45c1.21-1.52,2.61-2.89,3.91-4.32.85-.93,1.74-1.83,2.53-2.82A10,10,0,0,0,9.11,22a4.05,4.05,0,0,0-.35-4.11C8.52,17.55,8.26,17.19,8.06,16.9Z"/><path class="cls-1" d="M14.56,52.59,18.17,49c.17.15.37.32.56.5,2.66,2.55,5.35,5.07,8,7.66a2.75,2.75,0,0,0,4,0c1.31-1.22,2.58-2.49,3.93-3.67a35.49,35.49,0,0,1,3.18-2.55A7.26,7.26,0,0,1,44,49.83l.67.13s0,0,.11,0a1.93,1.93,0,0,0,0-.48c-.88-3.07.07-5.68,2.09-8,1.52-1.74,3.13-3.42,4.69-5.14a9.77,9.77,0,0,0,1-1.16,2.32,2.32,0,0,0-.21-3C50.37,30.07,48.41,28,46.46,26c-.81-.85-1.64-1.7-2.45-2.54l3.59-3.56a1.83,1.83,0,0,1,.26.2c2.82,2.85,5.65,5.69,8.46,8.56a9.86,9.86,0,0,1,2.27,3.64,5.42,5.42,0,0,1-1,5.54c-1.44,1.75-3.05,3.36-4.56,5a38.43,38.43,0,0,0-2.65,3.2,4.93,4.93,0,0,0-.88,3.66,5.13,5.13,0,0,0,1,2.17l.34.45L47.21,56l-.77-.53a4.41,4.41,0,0,0-4.72-.38,13.5,13.5,0,0,0-3.39,2.51c-1.55,1.45-3.06,2.94-4.63,4.36a7.49,7.49,0,0,1-3.38,1.93A5.87,5.87,0,0,1,25.49,63a27.37,27.37,0,0,1-3.38-2.79c-2.45-2.37-4.83-4.81-7.24-7.22C14.77,52.84,14.68,52.72,14.56,52.59Z"/><path class="cls-1" d="M49.69,34.55a5.5,5.5,0,0,1-1.64,4l-7,7-7.61,7.61a5.28,5.28,0,0,1-6.52,1,5.55,5.55,0,0,1-1.25-1c-4.9-4.89-9.76-9.82-14.7-14.66a5.48,5.48,0,0,1,0-7.74c3.81-3.76,7.58-7.57,11.36-11.36,1.11-1.1,2.21-2.22,3.33-3.32a5.31,5.31,0,0,1,7.77,0C38.26,21.08,43.13,26,48,30.83A5.46,5.46,0,0,1,49.69,34.55Zm-.89.29a4.45,4.45,0,0,0-1.39-3.37L32.72,16.79a4.41,4.41,0,0,0-6.48,0q-7.32,7.3-14.62,14.62a4.4,4.4,0,0,0,0,6.59Q19,45.34,26.31,52.67a5.14,5.14,0,0,0,1,.78,4.42,4.42,0,0,0,5.52-.92l7.72-7.71q3.34-3.36,6.7-6.7A4.48,4.48,0,0,0,48.8,34.84Z"/><path class="cls-1" d="M34.39,33.1l3.71,1.37,0,.16H36.9a3.26,3.26,0,0,0,.1.46,3,3,0,0,1-1,3.41,7.06,7.06,0,0,1-3,1.38,16.29,16.29,0,0,1-9.38-.28,5.81,5.81,0,0,1-3.11-2.17A3.55,3.55,0,0,1,24.51,32c1.68.5,3.31,3.34,1.38,5.32l-1,1c3.21.79,6.28,1.55,9.48.68.19-.06.38-.12.57-.2a2.59,2.59,0,0,0,1-4.23l-1.49-.08Z"/><path class="cls-1" d="M33.05,31.05H30.81L31,39.29l-2-.4L29.27,31H27.05L30,23.4h.17Z"/><path class="cls-1" d="M31.17,47.61H28.55l.3-6.82L31,40.45C31.13,42.8,31.11,45.15,31.17,47.61Z"/><path class="cls-2" d="M95,13h16v7.44H95v6.88H113.3v7.53c-.61.22-25.58.29-26.81.07V.12h26V7.59H95Z"/><path class="cls-2" d="M172.85,13v7.45H156.74v6.88c1.52,0,3,0,4.58,0h13.8V35H148.4c-.21-.63-.26-33.83,0-34.9h25.92V7.57H156.75c-.14,1.83,0,3.56-.07,5.43C162.07,13.07,167.4,13,172.85,13Z"/><path class="cls-2" d="M125.84,20.45v6.9h18.23a41.22,41.22,0,0,1,.08,7.65H117.51c-.21-.63-.29-33.4-.1-34.79.62-.2,24.14-.3,25.86-.1a42.82,42.82,0,0,1,.11,7.49c-2.88,0-5.77,0-8.66,0H126a18.7,18.7,0,0,0-.07,5.43h16v7.42Z"/><path class="cls-2" d="M72.84.1h8.49V35H72.84Z"/><path class="cls-2" d="M122.83,53.41H118l0-.12,1.25-.35a7.09,7.09,0,0,0,.28-1.31q0-4.32,0-8.64c0-1.12-.18-1.27-1.54-1.7h4.87l0,.08c-.2,0-.39.1-.58.13a1.07,1.07,0,0,0-1,1.07c0,1.39,0,2.78,0,4.24H127c0-1.45,0-2.87,0-4.29a1,1,0,0,0-.8-1c-.25-.08-.51-.11-.78-.17a18,18,0,0,1,4.95-.11l-1.5.64c0,.51-.08.92-.08,1.33q0,4.05,0,8.1c0,1.48.09,1.58,1.5,1.91a16.91,16.91,0,0,1-4.81.1s0-.13.06-.14c1.32-.24,1.5-.44,1.51-1.81V47.63h-5.75v2.26c0,.62,0,1.25,0,1.87,0,1,.26,1.22,1.24,1.42l.34.07Z"/><path class="cls-2" d="M129,58.38l-.95-.19a.62.62,0,0,1,0-.16c2.17,0,4.33,0,6.49.12a3.13,3.13,0,0,1,1.55.6A2.54,2.54,0,0,1,136.2,63l-.53.38c.24.11.4.21.58.28a2.39,2.39,0,0,1,1.66,2.11,2.52,2.52,0,0,1-1.3,2.55,4.85,4.85,0,0,1-2.09.64c-2.13.09-4.27,0-6.41,0,0,0-.07-.06-.15-.13a1,1,0,0,1,.23-.09c1.12-.21,1.31-.4,1.32-1.5,0-2.55,0-5.11,0-7.66a5.7,5.7,0,0,0-.29-1.24Zm2.13,9.89a5.83,5.83,0,0,0,3.44-.06A2,2,0,0,0,136,66.46a2.14,2.14,0,0,0-1-2.16,5.53,5.53,0,0,0-3.91-.54Zm0-9.57V63c1,0,2,.07,2.88,0a1.67,1.67,0,0,0,1.47-1.56,2.25,2.25,0,0,0-1.4-2.58A4.77,4.77,0,0,0,131.14,58.7Z"/><path class="cls-2" d="M151.32,48.7,149,53.82a6.41,6.41,0,0,1-.38-.66c-.79-2-1.59-4.08-2.37-6.13-.27-.7-.49-1.42-1.46-1.62a8.52,8.52,0,0,1,3.53-.17l-.81.61A33.32,33.32,0,0,0,149.55,51l1.58-3.41c-.36-.94-.44-2-1.63-2.4h3.72l.05.1-1,.46a2.55,2.55,0,0,0,.05.83c.54,1.41,1.11,2.8,1.68,4.21A13.88,13.88,0,0,0,156,45.76l-.71-.49a7.6,7.6,0,0,1,2.38,0,3.8,3.8,0,0,0-1.43,2.28c-.68,1.77-1.35,3.54-2,5.31-.1.27-.22.54-.42,1a8.07,8.07,0,0,1-.45-.75c-.46-1.16-.9-2.32-1.35-3.48-.13-.32-.27-.63-.41-.94Z"/><path class="cls-2" d="M93,41.89l.72-1L94,44.94l-.13.06a1.49,1.49,0,0,1-.28-.34c-.17-.34-.29-.71-.48-1a3.64,3.64,0,0,0-3.42-2,3.53,3.53,0,0,0-3.41,2A8.18,8.18,0,0,0,86,50.5a4.33,4.33,0,0,0,7.38.71,1.31,1.31,0,0,1,.59-.5,4.52,4.52,0,0,1-3.78,3c-4.93.63-7.4-3.54-6.73-7.35a6,6,0,0,1,4.6-5.2,5.47,5.47,0,0,1,3.57.23l1.08.41Z"/><path class="cls-2" d="M81.39,43.87c-.09-.21-.21-.4-.28-.61a1.79,1.79,0,0,0-1.78-1.35c-1.06,0-2.13,0-3.26,0v4.8c.83,0,1.65,0,2.46,0a1.2,1.2,0,0,0,1.09-.92A2.16,2.16,0,0,1,80,45v4.05c-.06,0-.13,0-.14-.05-.33-1.4-.57-1.59-2-1.6H76c0,1.6,0,3.11,0,4.62a1,1,0,0,0,.89,1.06l.63.13a16,16,0,0,1-5,.11c.32-.1.45-.15.59-.18.86-.16,1.14-.41,1.15-1.3,0-3,0-6.05,0-9.08,0-1-.24-1.14-1.56-1.41a55.18,55.18,0,0,1,8.85-.13l.12,2.55Z"/><path class="cls-2" d="M169.61,44.88l.16,1.51.64-.48a8.5,8.5,0,0,1,.94-.67,2,2,0,0,1,3.11,1.49,9.39,9.39,0,0,1,.12,1.5c0,1.1,0,2.2,0,3.3,0,.44.08.87.13,1.31l1,.46,0,.11h-3.73l0-.11,1-.4a6.24,6.24,0,0,0,.18-1.08c0-1.24,0-2.49,0-3.74a5.29,5.29,0,0,0-.11-.88,1.22,1.22,0,0,0-1.84-1,10.7,10.7,0,0,0-1.46.9c.06,1.95-.11,3.84.12,5.76l1.07.44,0,.1H166.9l1.13-.52a30.16,30.16,0,0,0,0-6.65l-1-.15A9.15,9.15,0,0,1,169.61,44.88Z"/><path class="cls-2" d="M100.28,61.68V58.62l-.93-.2a6,6,0,0,1,2.33-1c0,.42,0,.73,0,1.05,0,2.73,0,5.46,0,8.19a13,13,0,0,0,.15,1.48l.89.08a3.63,3.63,0,0,1-2.3,1l-.2-.73a1.41,1.41,0,0,0-.29.12,2.88,2.88,0,0,1-4.59-1.46A4.82,4.82,0,0,1,96.84,62a2.75,2.75,0,0,1,2.92-.43l.41.16S100.22,61.69,100.28,61.68Zm0,6c0-1.35,0-2.74,0-4.13a1.53,1.53,0,0,0-.13-.51,1.6,1.6,0,0,0-2.85-.41,4.58,4.58,0,0,0,.12,5C98.36,68.6,99.27,68.63,100.33,67.64Z"/><path class="cls-2" d="M74.12,68.62l-.55.52c-.25-.06-.3-2.4,0-3.56l.27.84a3.17,3.17,0,0,0,3.65,2.25,1.85,1.85,0,0,0,1.62-1.33,1.78,1.78,0,0,0-.71-2c-.51-.39-1.1-.7-1.65-1s-1.35-.75-2-1.19c-1.39-1-1.85-2.24-1.32-3.51A3.24,3.24,0,0,1,77,57.78a10.44,10.44,0,0,1,1.46.38c.23.06.44.15.69.24l.76-.6v3.57l-.13.06c-.13-.38-.26-.76-.4-1.14a2.84,2.84,0,0,0-3.22-1.91,2.44,2.44,0,0,0-1.25.74,1.34,1.34,0,0,0,.18,2,19.44,19.44,0,0,0,2.14,1.43c.6.38,1.24.69,1.84,1.07a3,3,0,0,1,1.56,3.22,3.17,3.17,0,0,1-2.88,2.4,10.92,10.92,0,0,1-3.62-.6Z"/><path class="cls-2" d="M170.51,68.47l1,.42,0,.1h-3.57l1-.51a6.37,6.37,0,0,0,.17-1.1q0-3.78,0-7.56a10.85,10.85,0,0,0-.15-1.23l-.91-.16,0-.17,2.43-1v5.45c.45-.37.73-.61,1-.83,1.52-1.2,3.15-.59,3.35,1.32.14,1.35.08,2.73.12,4.09,0,.4.08.8.12,1.17l1.07.49h-3.64l0-.1.89-.32a3.19,3.19,0,0,0,.22-.86c0-1.21,0-2.43,0-3.64,0-.64,0-1.39-.78-1.65a1.85,1.85,0,0,0-1.93.59,3.58,3.58,0,0,0-.3.33Z"/><path class="cls-2" d="M160.57,47.7a.76.76,0,0,1-1.2-.16,2,2,0,0,1,1.33-2.32,4.54,4.54,0,0,1,2.8-.13,1.71,1.71,0,0,1,1.44,1.69c.05,1.48.05,3,.07,4.44a1.65,1.65,0,0,0,.38,1.32l.89-.52c-.07.77-.73,1.36-1.84,1.62-.71-.29-.71-.29-1.06-1.2-.23.15-.45.28-.66.43s-.37.3-.57.42a2,2,0,0,1-2.79-.35,2.17,2.17,0,0,1,.23-2.91,10.22,10.22,0,0,1,2-1.26c.57-.3,1.2-.51,1.79-.76a2.16,2.16,0,0,0-.11-1.66,1.33,1.33,0,0,0-1.54-.76c-.65.1-.91.4-1,1.16,0,.23,0,.47-.08.7A1,1,0,0,1,160.57,47.7Zm2.91,1A5.5,5.5,0,0,0,161,49.89a2.14,2.14,0,0,0-.55,1,1.36,1.36,0,0,0,.51,1.42,1.14,1.14,0,0,0,1.4.11c.38-.21.74-.45,1.1-.67Z"/><path class="cls-2" d="M138.67,48.33h-5.59a3.48,3.48,0,0,0,1.38,3.29c1.42,1,2.71.63,3.84-.67l.12.15a3.13,3.13,0,0,1-.16.62,3.23,3.23,0,0,1-5.13,1.15c-2.13-1.75-1.9-5.92.43-7.38a3.41,3.41,0,0,1,3.56-.15A3,3,0,0,1,138.67,48.33Zm-1.89-.68A1.83,1.83,0,0,0,135,45.56c-1,0-1.77.82-1.89,2.09Z"/><path class="cls-2" d="M154.45,63.4c.13,1.77-.2,3.49.21,5.15l.92.33V69l-1.67,0c-.59,0-1.18,0-1.84,0,.36-.29.77-.48.92-.79a3.06,3.06,0,0,0,.11-1.22c0-1.16,0-2.32,0-3.47a9.15,9.15,0,0,0-.16-1.12l-.88-.08a7.18,7.18,0,0,1,2.31-1.11l.16,1.37,1.13-.8a1.89,1.89,0,0,1,3.2,1.33,6.37,6.37,0,0,1,0,1c0,1.07,0,2.13,0,3.2a9.06,9.06,0,0,0,.16,1.18l.85.38,0,.1h-3.38l0-.11.42-.14a.85.85,0,0,0,.66-.93c0-1.34,0-2.67,0-4s-1-1.91-2.25-1.13A10,10,0,0,0,154.45,63.4Z"/><path class="cls-2" d="M111.56,62.48l-.91-.14a4.63,4.63,0,0,1,2.29-1c0,.2,0,.4.08.59s0,.34.09.61c.23-.14.39-.23.55-.34a8.79,8.79,0,0,1,.79-.57,1.86,1.86,0,0,1,3,1.43,11.75,11.75,0,0,1,.06,1.68c0,.86,0,1.72,0,2.58a9.9,9.9,0,0,0,.14,1.11l1,.52h-3.51c1-.2,1.12-.94,1.08-1.8,0-1.07,0-2.14,0-3.2,0-.6,0-1.25-.67-1.54a1.78,1.78,0,0,0-1.82.39c-.22.16-.41.34-.64.54a36.35,36.35,0,0,0,.17,5.13l.94.4,0,.09h-3.43c1-.53,1-.59,1-1.68s0-2.43,0-3.65C111.68,63.29,111.61,62.91,111.56,62.48Z"/><path class="cls-2" d="M87.3,62l-.91-.29v-.12h2.37c0,.31,0,.62,0,.94,0,1.31,0,2.61,0,3.92,0,.64,0,1.36.72,1.67a1.83,1.83,0,0,0,1.89-.48l.4-.3A14.18,14.18,0,0,0,91.61,62l-.77-.26,0-.14h2.36c.18,2.15-.12,4.32.18,6.48l1.13.18a9.86,9.86,0,0,1-2.51,1l-.19-1.41c-.31.27-.5.47-.73.63a5,5,0,0,1-1.14.66,1.76,1.76,0,0,1-2.35-1.5,20.11,20.11,0,0,1-.13-2.57c0-.66,0-1.31,0-2A10.82,10.82,0,0,0,87.3,62Z"/><path class="cls-2" d="M100.71,41.29s0,.08,0,.09c-1.47.42-1.54.5-1.54,2.07v7.92c0,1.45.12,1.59,1.52,1.9a17,17,0,0,1-5,.07L96.92,53a2,2,0,0,0,.47-1.57q0-4,0-7.91c0-1.64-.09-1.75-1.6-2.21Z"/><path class="cls-2" d="M149.16,64.07c0-.82.12-1.63-.75-2.07a1.43,1.43,0,0,0-1.75.5l-.08,1.18-.59.38c-.74-.42-.87-.75-.57-1.38a2,2,0,0,1,1.29-1.15,4.86,4.86,0,0,1,1.31-.22c1.8,0,2.48.64,2.5,2.44,0,1.1,0,2.2,0,3.29a10.37,10.37,0,0,0,.12,1.19l1-.36A1.52,1.52,0,0,1,149.48,69l-.43-.83c-.33.24-.64.46-1,.66a1.92,1.92,0,0,1-2.65-.15,2,2,0,0,1,.31-2.86,12.13,12.13,0,0,1,2.08-1.18C148.25,64.41,148.7,64.26,149.16,64.07Zm-.06,3.44V64.76A4.88,4.88,0,0,0,146.76,66a1.44,1.44,0,0,0-.15,1.8,1.19,1.19,0,0,0,1.66.31A8,8,0,0,0,149.1,67.51Z"/><path class="cls-2" d="M141.24,41.89l-1.15-.21a16.23,16.23,0,0,1,2.7-1.18c0,.44.09.77.09,1.1,0,3.3,0,6.59,0,9.89a9.92,9.92,0,0,0,.19,1.39l1,.42,0,.1h-3.72l-.05-.09.92-.42a7.89,7.89,0,0,0,.17-1.24q0-4.23,0-8.46C141.37,42.78,141.29,42.37,141.24,41.89Z"/><path class="cls-2" d="M109.9,64.43h-5.16a3.43,3.43,0,0,0,1.47,3.12,2,2,0,0,0,1.79.33,8.69,8.69,0,0,0,1.47-.79,2.47,2.47,0,0,1-2.24,2.16A3.12,3.12,0,0,1,104.35,68c-1-1.2-1.28-4.57.63-6a3.06,3.06,0,0,1,3.43-.36A2.87,2.87,0,0,1,109.9,64.43Zm-5.1-.63h3.3c0-1.21-.52-1.87-1.46-1.91S105,62.55,104.8,63.8Z"/><path class="cls-2" d="M166.88,63.45c-.85.56-1.38.41-1.55-.45-.1-.5-.24-.94-.77-1.07a1.59,1.59,0,0,0-1.56.42l-.18.2a4,4,0,0,0,.72,5.09,2.16,2.16,0,0,0,2.56-.15c.17-.15.23-.41.42-.55a.8.8,0,0,1-.06,1.06,2.84,2.84,0,0,1-4.07.7,4.38,4.38,0,0,1,.23-6.85,3.06,3.06,0,0,1,3.3-.16A1.56,1.56,0,0,1,166.88,63.45Z"/><path class="cls-2" d="M84.11,61.46l1.85.15c-.49.81-1.25.25-1.82.71v4.31a4.25,4.25,0,0,0,.06.8c.14.73.69.94,1.31.5.18-.13.34-.29.57-.48a1.88,1.88,0,0,1-1.86,1.71A1.39,1.39,0,0,1,82.88,68a8.52,8.52,0,0,1-.09-1.24c0-1.21,0-2.43,0-3.65,0-.29,0-.57,0-.9L81.5,62a5.72,5.72,0,0,0,2.4-2.83l.21,0Z"/><path class="cls-2" d="M142.74,69h-3.81l1.26-.61c0-2,.06-3.89,0-5.87l-.95-.2a4.54,4.54,0,0,1,2.23-1l.19,1.21.49-.41a6.22,6.22,0,0,1,1-.74,1,1,0,0,1,1.28.5c.18.44,0,.76-.63,1.1l-1.14-.5a1.91,1.91,0,0,0-1.06,1.62c0,1.1,0,2.2,0,3.3A1.63,1.63,0,0,0,142.74,69Z"/><path class="cls-2" d="M120.07,62.18l-1-.15,2.31-2.82v2.23l1.82.2c-.48.79-1.21.22-1.74.63,0,.22,0,.5,0,.79,0,1.36,0,2.73,0,4.09,0,.79.22.94,1.06,1l.67-.56a1.51,1.51,0,0,1-1.42,1.58,1.41,1.41,0,0,1-1.59-1.1,6.34,6.34,0,0,1-.07-1.07Z"/><path class="cls-2" d="M107.07,49.93v-1.2h4.55v1.2Z"/></g></g></svg>